<?xml version="1.0" encoding="utf-8"?>
<svg xmlns="http://www.w3.org/2000/svg" version="1.1" id="Layer_1" x="0px" y="0px" enable-background="new 0 0 1024 1024" viewBox="86.15 375.81 900.85 254.55">
  <path fill="none" opacity="1.000000" stroke="none" d=" M545.000000,1025.000000   C363.333344,1025.000000 182.166672,1025.000000 1.000000,1025.000000   C1.000000,683.666687 1.000000,342.333344 1.000000,1.000000   C342.333344,1.000000 683.666687,1.000000 1025.000000,1.000000   C1025.000000,342.333344 1025.000000,683.666687 1025.000000,1025.000000   C865.166687,1025.000000 705.333313,1025.000000 545.000000,1025.000000  M88.024178,524.338806   C88.263496,525.130798 88.588989,525.907776 88.729706,526.716919   C93.825592,556.020142 110.756287,577.873596 132.704544,596.554932   C149.284332,610.666870 168.574615,620.332397 187.870804,629.963806   C188.824036,630.439514 190.417831,630.522522 191.333832,630.051086   C211.100632,619.877808 231.139130,610.198425 248.346130,595.706238   C277.026703,571.550720 291.794739,540.919739 291.986053,503.383972   C292.088806,483.227905 292.004303,463.070892 292.004303,442.914307   C292.004272,432.769073 292.004303,422.623871 292.004303,412.650665   C258.635925,400.389801 225.624222,388.217194 192.549133,376.219360   C190.681610,375.541901 188.105637,375.776764 186.175278,376.468536   C154.127213,387.953552 122.142334,399.614807 90.099541,411.114685   C87.196991,412.156403 86.137108,413.499939 86.152130,416.692047   C86.280663,444.010956 86.066299,471.331818 86.273132,498.649719   C86.335793,506.926025 87.394348,515.194763 88.024178,524.338806  M401.103638,537.667480   C392.226349,544.007568 382.489258,544.176025 372.489594,541.360229   C363.301392,538.772949 358.892120,531.997864 357.787018,523.058716   C349.552338,523.058716 341.779236,523.058716 333.715607,523.058716   C333.831757,536.593750 338.492432,547.549744 349.652832,555.288452   C367.004974,567.320557 400.299469,566.856140 417.516541,554.775940   C434.969879,542.530029 438.393097,510.295685 414.069702,498.155212   C408.911743,495.580719 403.323883,493.768585 397.793091,492.062164   C388.610443,489.229065 379.216400,487.058746 370.103180,484.031799   C365.073334,482.361084 361.787933,478.551331 362.008392,472.701569   C362.226990,466.900055 365.392883,463.111298 370.460663,460.804596   C378.473999,457.157166 386.617950,457.231934 394.637634,460.675537   C399.645691,462.825958 402.889038,466.708496 404.223846,472.089508   C404.528870,473.319244 405.007355,474.505951 405.341766,475.518127   C413.338379,475.518127 420.965576,475.518127 428.571167,475.518127   C429.239685,466.671783 425.405365,456.825958 418.781525,450.126038   C403.651611,434.822388 371.241089,432.987427 351.802032,445.580322   C332.751770,457.921417 328.490295,490.570068 354.811493,502.536621   C360.959290,505.331573 367.633698,507.001495 374.123260,509.002838   C382.036224,511.443176 390.330109,512.944397 397.877563,516.200134   C407.716736,520.444519 408.875214,529.042236 401.103638,537.667480  M837.895874,525.635254   C847.664978,553.847229 873.393127,568.343689 904.079285,562.926086   C926.225647,559.016113 945.462585,538.744568 945.068542,519.604126   C936.817566,519.604126 928.565430,519.604126 920.353027,519.604126   C920.079529,520.272766 919.868103,520.722595 919.708252,521.190063   C915.123108,534.600403 907.604431,540.717285 893.857117,541.395569   C880.877502,542.036133 870.584900,536.872742 864.970764,524.915344   C857.329102,508.639496 857.729126,492.045349 865.255066,475.742432   C866.481750,473.085175 868.469849,470.660461 870.515503,468.519409   C884.636353,453.739532 910.778381,457.832733 918.243958,475.927551   C919.047058,477.874054 919.665649,479.896698 920.273010,481.610901   C928.887085,481.610901 937.139160,481.610901 946.423401,481.610901   C944.302063,475.576141 942.972656,469.838318 940.373291,464.749115   C930.755005,445.917725 914.265808,437.844238 893.937622,437.278839   C872.234985,436.675232 854.354980,444.735291 843.210876,463.998627   C832.086426,483.228058 831.792175,503.876129 837.895874,525.635254  M818.185791,537.500061   C818.185791,504.763519 818.185791,472.027008 818.185791,439.306702   C809.735291,439.306702 801.833435,439.306702 793.573608,439.306702   C793.573608,454.808533 793.573608,470.004822 793.573608,485.754944   C778.083069,461.934540 744.768005,469.223572 734.981873,492.164337   C727.334595,510.091400 727.406921,528.192444 736.498169,545.601379   C743.984985,559.937744 759.783203,566.664795 775.420471,562.967102   C783.556580,561.043274 789.255859,555.783142 794.067444,547.377625   C794.067444,553.201477 794.067444,557.448303 794.067444,561.778564   C802.299316,561.778564 810.167358,561.778564 818.185791,561.778564   C818.185791,553.800232 818.185791,546.150146 818.185791,537.500061  M500.447601,496.007629   C505.150482,500.438538 505.563629,506.282654 505.593140,512.161438   C505.668457,527.157959 505.612579,542.155151 505.628815,557.152039   C505.630524,558.738281 505.762360,560.324402 505.834381,561.922852   C514.081543,561.922852 521.859131,561.922852 529.819519,561.922852   C529.819519,540.959656 530.728638,520.132019 529.545532,499.423859   C528.510315,481.304565 515.951782,470.934601 498.434692,471.066345   C487.097321,471.151611 478.482849,476.249725 471.508636,485.557800   C471.508636,470.091492 471.508636,454.625183 471.508636,439.256287   C463.043457,439.256287 455.274933,439.256287 447.392944,439.256287   C447.392944,480.250397 447.392944,520.983521 447.392944,561.898560   C455.562866,561.898560 463.481750,561.898560 471.870514,561.898560   C471.870514,560.072998 471.869019,558.454102 471.870758,556.835205   C471.887634,541.171997 471.841248,525.508362 471.952209,509.845825   C471.999756,503.132507 474.215210,497.263062 480.564728,494.089783   C487.144806,490.801270 493.733673,491.097717 500.447601,496.007629  M661.220764,555.761353   C667.626526,550.911743 672.252502,544.892578 674.066650,536.419495   C667.139282,535.889160 660.551758,535.298706 653.951233,534.973938   C652.978455,534.926025 651.531982,535.897278 651.003235,536.804199   C647.078796,543.535828 640.740051,545.523376 633.616028,545.613770   C619.058044,545.798706 611.668213,533.002747 613.670715,523.638184   C634.024780,523.638184 654.452759,523.638184 675.104126,523.638184   C675.104126,519.344788 675.379395,515.360657 675.061401,511.424377   C671.970642,473.162750 636.161499,464.351257 612.993469,475.174103   C583.913513,488.758698 583.526978,529.689697 598.172974,548.219666   C612.076233,565.809937 639.783630,569.435181 661.220764,555.761353  M693.698608,438.993530   C689.634583,438.191345 690.085144,440.923096 690.086670,443.478729   C690.109741,481.785431 690.101074,520.092163 690.110718,558.398865   C690.110962,559.517395 690.230042,560.635986 690.301941,561.898926   C698.520386,561.898926 706.436890,561.898926 714.484009,561.898926   C714.484009,520.841187 714.484009,479.999603 714.484009,438.993500   C707.644043,438.993500 701.152405,438.993500 693.698608,438.993530  M987.002747,461.500031   C987.002747,454.067841 987.002747,446.635620 987.002747,439.235382   C978.322388,439.235382 970.225952,439.235382 962.015625,439.235382   C962.015625,480.208557 962.015625,520.948486 962.015625,561.773621   C970.430908,561.773621 978.631470,561.773621 987.002747,561.773621   C987.002747,528.462708 987.002747,495.481354 987.002747,461.500031  M549.069702,520.500000   C549.069702,534.269470 549.069702,548.038940 549.069702,561.862305   C557.527893,561.862305 565.443665,561.862305 573.494507,561.862305   C573.494507,532.074341 573.494507,502.539032 573.494507,472.853790   C565.260925,472.853790 557.321899,472.853790 549.069702,472.853790   C549.069702,488.559875 549.069702,504.029938 549.069702,520.500000  M549.701416,441.355927   C546.571350,447.497772 547.035278,452.698792 551.089783,456.921692   C555.212830,461.215942 562.166565,462.428955 567.641907,459.809052   C572.670898,457.402710 575.595032,452.341858 574.963806,446.857117   C574.350891,441.531189 571.226318,437.896271 566.306458,436.360229   C560.180298,434.447601 554.477722,435.465210 549.701416,441.355927  z"/>
  <path fill="#7F22FE" opacity="1.000000" stroke="none" d=" M88.010468,523.902893   C87.394348,515.194763 86.335793,506.926025 86.273132,498.649719   C86.066299,471.331818 86.280663,444.010956 86.152130,416.692047   C86.137108,413.499939 87.196991,412.156403 90.099541,411.114685   C122.142334,399.614807 154.127213,387.953552 186.175278,376.468536   C188.105637,375.776764 190.681610,375.541901 192.549133,376.219360   C225.624222,388.217194 258.635925,400.389801 292.004303,412.650665   C292.004303,422.623871 292.004272,432.769073 292.004303,442.914307   C292.004303,463.070892 292.088806,483.227905 291.986053,503.383972   C291.794739,540.919739 277.026703,571.550720 248.346130,595.706238   C231.139130,610.198425 211.100632,619.877808 191.333832,630.051086   C190.417831,630.522522 188.824036,630.439514 187.870804,629.963806   C168.574615,620.332397 149.284332,610.666870 132.704544,596.554932   C110.756287,577.873596 93.825592,556.020142 88.729706,526.716919   C88.588989,525.907776 88.263496,525.130798 88.010468,523.902893  M268.999634,434.771027   C269.762360,430.969604 267.948090,429.324890 264.431030,428.061462   C240.850418,419.590454 217.373932,410.829529 193.788116,402.373383   C191.579437,401.581482 188.599258,401.558380 186.395721,402.347229   C162.047348,411.063873 137.811859,420.096130 113.455002,428.788513   C110.475456,429.851837 109.808601,431.163422 109.823517,434.037537   C109.947906,458.019684 109.727631,482.004913 110.001190,505.984711   C110.279404,530.372498 119.486298,551.206299 136.274170,568.761780   C150.640869,583.785339 167.996552,594.485413 186.675568,603.181458   C188.160843,603.872986 190.595993,603.809937 192.055893,603.059265   C200.833115,598.545898 209.742554,594.186340 218.077255,588.933594   C251.940125,567.592224 270.651886,537.884094 269.129486,496.667267   C268.380005,476.376190 268.999481,456.034515 268.999634,434.771027  z"/>
  <path fill="#DDD6FE" opacity="1.000000" stroke="none" d=" M401.379700,537.414551   C408.875214,529.042236 407.716736,520.444519 397.877563,516.200134   C390.330109,512.944397 382.036224,511.443176 374.123260,509.002838   C367.633698,507.001495 360.959290,505.331573 354.811493,502.536621   C328.490295,490.570068 332.751770,457.921417 351.802032,445.580322   C371.241089,432.987427 403.651611,434.822388 418.781525,450.126038   C425.405365,456.825958 429.239685,466.671783 428.571167,475.518127   C420.965576,475.518127 413.338379,475.518127 405.341766,475.518127   C405.007355,474.505951 404.528870,473.319244 404.223846,472.089508   C402.889038,466.708496 399.645691,462.825958 394.637634,460.675537   C386.617950,457.231934 378.473999,457.157166 370.460663,460.804596   C365.392883,463.111298 362.226990,466.900055 362.008392,472.701569   C361.787933,478.551331 365.073334,482.361084 370.103180,484.031799   C379.216400,487.058746 388.610443,489.229065 397.793091,492.062164   C403.323883,493.768585 408.911743,495.580719 414.069702,498.155212   C438.393097,510.295685 434.969879,542.530029 417.516541,554.775940   C400.299469,566.856140 367.004974,567.320557 349.652832,555.288452   C338.492432,547.549744 333.831757,536.593750 333.715607,523.058716   C341.779236,523.058716 349.552338,523.058716 357.787018,523.058716   C358.892120,531.997864 363.301392,538.772949 372.489594,541.360229   C382.489258,544.176025 392.226349,544.007568 401.379700,537.414551  z"/>
  <path fill="#7F22FE" opacity="1.000000" stroke="none" d=" M837.774780,525.255737   C831.792175,503.876129 832.086426,483.228058 843.210876,463.998627   C854.354980,444.735291 872.234985,436.675232 893.937622,437.278839   C914.265808,437.844238 930.755005,445.917725 940.373291,464.749115   C942.972656,469.838318 944.302063,475.576141 946.423401,481.610901   C937.139160,481.610901 928.887085,481.610901 920.273010,481.610901   C919.665649,479.896698 919.047058,477.874054 918.243958,475.927551   C910.778381,457.832733 884.636353,453.739532 870.515503,468.519409   C868.469849,470.660461 866.481750,473.085175 865.255066,475.742432   C857.729126,492.045349 857.329102,508.639496 864.970764,524.915344   C870.584900,536.872742 880.877502,542.036133 893.857117,541.395569   C907.604431,540.717285 915.123108,534.600403 919.708252,521.190063   C919.868103,520.722595 920.079529,520.272766 920.353027,519.604126   C928.565430,519.604126 936.817566,519.604126 945.068542,519.604126   C945.462585,538.744568 926.225647,559.016113 904.079285,562.926086   C873.393127,568.343689 847.664978,553.847229 837.774780,525.255737  z"/>
  <path fill="#DDD6FE" opacity="1.000000" stroke="none" d="M 818.186 538 C 818.186 546.15 818.186 553.8 818.186 561.779 C 810.167 561.779 802.299 561.779 794.067 561.779 C 794.067 557.448 794.067 553.201 794.067 547.378 C 789.256 555.783 783.557 561.043 775.42 562.967 C 759.783 566.665 743.985 559.938 736.498 545.601 C 727.407 528.192 727.335 510.091 734.982 492.164 C 744.768 469.224 778.083 461.935 793.574 485.755 C 793.574 470.005 793.574 454.809 793.574 439.307 C 801.833 439.307 809.735 439.307 818.186 439.307 C 818.186 472.027 818.186 504.764 818.186 538 M 794.375 513.129 C 793.988 508.568 793.12 505.864 791.678 502.589 C 788.308 494.935 782.417 490.675 773.716 490.932 C 765.988 491.159 759.905 495.528 757.031 503.623 C 753.756 512.845 753.782 522.252 757.116 531.439 C 759.832 538.924 765.178 543.565 773.436 543.922 C 781.801 544.283 788.355 540.556 791.159 532.851 C 793.309 526.944 794.489 520.345 794.375 513.129 Z"/>
  <path fill="#DDD6FE" opacity="1.000000" stroke="none" d=" M500.169006,495.749817   C493.733673,491.097717 487.144806,490.801270 480.564728,494.089783   C474.215210,497.263062 471.999756,503.132507 471.952209,509.845825   C471.841248,525.508362 471.887634,541.171997 471.870758,556.835205   C471.869019,558.454102 471.870514,560.072998 471.870514,561.898560   C463.481750,561.898560 455.562866,561.898560 447.392944,561.898560   C447.392944,520.983521 447.392944,480.250397 447.392944,439.256287   C455.274933,439.256287 463.043457,439.256287 471.508636,439.256287   C471.508636,454.625183 471.508636,470.091492 471.508636,485.557800   C478.482849,476.249725 487.097321,471.151611 498.434692,471.066345   C515.951782,470.934601 528.510315,481.304565 529.545532,499.423859   C530.728638,520.132019 529.819519,540.959656 529.819519,561.922852   C521.859131,561.922852 514.081543,561.922852 505.834381,561.922852   C505.762360,560.324402 505.630524,558.738281 505.628815,557.152039   C505.612579,542.155151 505.668457,527.157959 505.593140,512.161438   C505.563629,506.282654 505.150482,500.438538 500.169006,495.749817  z"/>
  <path fill="#DDD6FE" opacity="1.000000" stroke="none" d=" M660.919250,555.958862   C639.783630,569.435181 612.076233,565.809937 598.172974,548.219666   C583.526978,529.689697 583.913513,488.758698 612.993469,475.174103   C636.161499,464.351257 671.970642,473.162750 675.061401,511.424377   C675.379395,515.360657 675.104126,519.344788 675.104126,523.638184   C654.452759,523.638184 634.024780,523.638184 613.670715,523.638184   C611.668213,533.002747 619.058044,545.798706 633.616028,545.613770   C640.740051,545.523376 647.078796,543.535828 651.003235,536.804199   C651.531982,535.897278 652.978455,534.926025 653.951233,534.973938   C660.551758,535.298706 667.139282,535.889160 674.066650,536.419495   C672.252502,544.892578 667.626526,550.911743 660.919250,555.958862  M630.501343,508.067535   C637.593872,508.067535 644.686401,508.067535 651.825317,508.067535   C650.343323,495.953247 643.635620,489.702728 632.567932,489.718018   C621.682190,489.733063 614.655518,496.230469 613.170898,508.067535   C618.648865,508.067535 624.075500,508.067535 630.501343,508.067535  z"/>
  <path fill="#DDD6FE" opacity="1.000000" stroke="none" d=" M694.179688,438.993530   C701.152405,438.993500 707.644043,438.993500 714.484009,438.993500   C714.484009,479.999603 714.484009,520.841187 714.484009,561.898926   C706.436890,561.898926 698.520386,561.898926 690.301941,561.898926   C690.230042,560.635986 690.110962,559.517395 690.110718,558.398865   C690.101074,520.092163 690.109741,481.785431 690.086670,443.478729   C690.085144,440.923096 689.634583,438.191345 694.179688,438.993530  z"/>
  <path fill="#7F22FE" opacity="1.000000" stroke="none" d=" M987.002747,462.000000   C987.002747,495.481354 987.002747,528.462708 987.002747,561.773621   C978.631470,561.773621 970.430908,561.773621 962.015625,561.773621   C962.015625,520.948486 962.015625,480.208557 962.015625,439.235382   C970.225952,439.235382 978.322388,439.235382 987.002747,439.235382   C987.002747,446.635620 987.002747,454.067841 987.002747,462.000000  z"/>
  <path fill="#DDD6FE" opacity="1.000000" stroke="none" d=" M549.069702,520.000000   C549.069702,504.029938 549.069702,488.559875 549.069702,472.853790   C557.321899,472.853790 565.260925,472.853790 573.494507,472.853790   C573.494507,502.539032 573.494507,532.074341 573.494507,561.862305   C565.443665,561.862305 557.527893,561.862305 549.069702,561.862305   C549.069702,548.038940 549.069702,534.269470 549.069702,520.000000  z"/>
  <path fill="#DDD6FE" opacity="1.000000" stroke="none" d=" M549.906311,441.046204   C554.477722,435.465210 560.180298,434.447601 566.306458,436.360229   C571.226318,437.896271 574.350891,441.531189 574.963806,446.857117   C575.595032,452.341858 572.670898,457.402710 567.641907,459.809052   C562.166565,462.428955 555.212830,461.215942 551.089783,456.921692   C547.035278,452.698792 546.571350,447.497772 549.906311,441.046204  z"/>
  <path fill="#DDD6FE" opacity="1.000000" stroke="none" d=" M156.185593,458.293030   C152.368134,462.122681 153.345001,469.249573 157.612549,470.870819   C187.934326,482.390045 218.272125,493.867035 248.957230,505.490997   C248.897430,524.142273 244.056992,541.118958 230.552002,554.969543   C219.338684,566.469910 206.237961,575.265991 191.778442,582.100281   C190.623947,582.645935 188.822922,582.973999 187.792358,582.460266   C170.312988,573.747253 154.386856,563.000671 142.461151,547.134338   C133.985229,535.857727 130.171066,523.201355 131.091492,508.418915   C138.578629,510.992645 145.901093,513.460022 153.165726,516.087341   C153.858459,516.337891 154.516129,517.539612 154.640366,518.380920   C156.803665,533.029358 166.316895,542.666260 177.578751,550.571472   C191.398834,560.272400 186.352249,560.605347 201.415314,550.555176   C211.360321,543.919800 219.942078,535.530029 223.430328,523.231628   C224.454315,519.621277 223.977982,518.188110 220.255569,516.829163   C191.649002,506.385956 163.128021,495.707336 134.631607,484.966156   C133.180115,484.419067 131.180405,482.646057 131.155289,481.408905   C130.898514,468.762787 130.998123,456.109467 130.998123,443.636963   C150.059525,436.702026 168.791443,429.835114 187.584747,423.140564   C189.216492,422.559326 191.429321,422.624084 193.074173,423.216431   C210.634476,429.540283 228.150177,435.989807 245.620575,442.557861   C246.969315,443.064941 248.831482,444.710754 248.853317,445.857788   C249.087540,458.158966 248.999115,470.466248 248.999115,483.641022   C241.517700,480.678589 234.421814,477.956085 227.436905,474.973694   C226.703110,474.660431 226.328262,472.823181 226.293503,471.677582   C226.162521,467.359222 226.240952,463.034546 226.240952,458.449585   C215.140289,454.598846 204.222794,450.715271 193.217651,447.098419   C191.577789,446.559509 189.403366,446.903870 187.684357,447.470703   C177.271957,450.904175 166.919983,454.520935 156.185593,458.293030  z"/>
<path xmlns="http://www.w3.org/2000/svg" fill="#000000" opacity="1.000000" stroke="none" d=" M259.522278,426.478363   C268.999390,429.669586 268.999298,429.669586 268.999329,438.936676   C268.999359,458.594238 268.486938,478.268005 269.107880,497.905945   C270.344391,537.011475 252.944824,565.886536 221.165558,586.904297   C211.995895,592.968811 202.001465,597.803467 192.264038,602.973877   C190.779617,603.762024 188.304443,604.010132 186.846832,603.322449   C167.916168,594.390930 150.214218,583.589661 135.719604,568.198242   C119.323524,550.787598 110.293716,530.192444 110.008270,506.175323   C109.721214,482.023102 109.944191,457.865082 109.828491,433.710175   C109.815453,430.988770 110.514351,429.835205 113.293610,428.843475   C137.657715,420.149689 161.902374,411.121094 186.267349,402.429749   C188.596558,401.598877 191.750900,401.690155 194.102356,402.529510   C215.850754,410.292633 237.506790,418.314484 259.522278,426.478363  M238.753052,501.835693   C238.320908,501.585541 237.913773,501.269592 237.453079,501.094635   C210.965057,491.036621 184.527435,480.840912 157.930283,471.079926   C153.115448,469.312866 154.352859,466.121124 153.936783,462.865753   C153.482239,459.309448 155.475510,458.586609 158.257111,457.663696   C168.196411,454.365875 178.005020,450.674591 187.939484,447.361267   C189.782074,446.746704 192.163681,446.637726 193.981567,447.242371   C204.681458,450.801086 215.288071,454.640167 226.241486,458.495819   C226.241486,462.999054 226.151901,467.484283 226.305389,471.961121   C226.343094,473.060791 226.898361,474.782898 227.683777,475.116425   C234.583054,478.045868 241.588364,480.725616 248.996582,483.650848   C248.996582,470.501221 249.069550,458.032959 248.859268,445.569427   C248.842285,444.562897 247.050079,443.137726 245.797516,442.668243   C228.166550,436.059509 210.494080,429.560791 192.800095,423.122223   C191.572067,422.675323 189.941223,422.479767 188.756012,422.898468   C169.512070,429.697388 150.309875,436.614532 130.998322,443.540802   C130.998322,455.726776 131.096954,467.719635 130.930756,479.708801   C130.887833,482.805420 131.828049,484.110229 134.852966,485.218750   C163.293564,495.641113 191.609741,506.403564 220.068329,516.775574   C224.085815,518.239807 224.387100,519.718445 223.307281,523.506226   C219.845871,535.648193 211.344467,543.881531 201.566391,550.433777   C186.327408,560.645386 191.436966,560.307373 177.335083,550.384399   C166.067169,542.455505 156.662354,532.739746 154.548279,518.081421   C154.428391,517.250244 153.282242,516.228333 152.391098,515.900696   C145.388962,513.326050 138.332520,510.899078 131.112411,508.363281   C130.084000,523.405273 134.152679,536.291077 142.942490,547.782959   C154.893768,563.408264 170.779953,573.941406 188.056046,582.629211   C189.160461,583.184692 191.318115,582.598022 192.534485,581.828857   C202.824112,575.322754 213.571854,569.366943 223.103943,561.874329   C241.171219,547.672607 249.329239,528.421326 248.854568,505.453278   C245.654129,504.268463 242.590836,503.134430 238.753052,501.835693  z"/>
</svg>