<?xml version="1.0"?>
<svg viewBox="0 0 160 192" xmlns="http://www.w3.org/2000/svg" xmlns:svg="http://www.w3.org/2000/svg">
 <defs>
  <linearGradient id="paint0_linear_1288_1252" x1="0" x2="1" y1="0" y2="1">
   <stop stop-color="#508AB7"/>
   <stop offset="1" stop-color="#2D1342"/>
  </linearGradient>
  <linearGradient id="paint1_linear_1288_1252" x1="0.01" x2="0.99" y1="0.11" y2="0.89">
   <stop stop-color="#7f22fe"/>
   <stop offset="1" stop-color="#fb2c36"/>
  </linearGradient>
  <clipPath id="clip0_1288_1252">
   <rect fill="white" height="192" id="svg_1" width="160"/>
  </clipPath>
 </defs>
 <g class="layer" display="inline">
  <title>Layer 1</title>
  <g clip-path="url(#clip0_1288_1252)" id="svg_2" transform="matrix(1 0 0 1 0 0) matrix(1 0 0 1 0 0)">
   <path d="m545,1025c-181.67,0 -362.83,0 -544,0c0,-341.33 0,-682.67 0,-1024c341.33,0 682.67,0 1024,0c0,341.33 0,682.67 0,1024c-159.83,0 -319.67,0 -480,0m-456.98,-500.66c0.24,0.79 0.57,1.57 0.71,2.38c5.1,29.3 22.03,51.15 43.97,69.83c16.58,14.12 35.87,23.78 55.17,33.41c0.95,0.48 2.55,0.56 3.46,0.09c19.77,-10.17 39.81,-19.85 57.02,-34.34c28.68,-24.16 43.44,-54.79 43.64,-92.33c0.1,-20.15 0.01,-40.31 0.01,-60.47c0,-10.14 0,-20.29 0,-30.26c-33.36,-12.26 -66.38,-24.43 -99.45,-36.43c-1.87,-0.68 -4.44,-0.44 -6.37,0.25c-32.05,11.48 -64.04,23.14 -96.08,34.64c-2.9,1.05 -3.96,2.39 -3.95,5.58c0.13,27.32 -0.08,54.64 0.12,81.96c0.07,8.28 1.12,16.54 1.75,25.69m313.08,13.33c-8.87,6.34 -18.61,6.51 -28.61,3.69c-9.19,-2.59 -13.6,-9.36 -14.7,-18.3c-8.24,0 -16.01,0 -24.07,0c0.11,13.53 4.77,24.49 15.93,32.23c17.35,12.03 50.65,11.57 67.87,-0.51c17.45,-12.25 20.87,-44.48 -3.45,-56.62c-5.16,-2.58 -10.75,-4.39 -16.28,-6.1c-9.18,-2.83 -18.57,-5 -27.69,-8.03c-5.03,-1.67 -8.31,-5.48 -8.09,-11.33c0.22,-5.8 3.38,-9.59 8.45,-11.9c8.01,-3.64 16.16,-3.57 24.18,-0.12c5.01,2.15 8.25,6.03 9.58,11.41c0.31,1.23 0.79,2.42 1.12,3.43c8,0 15.63,0 23.23,0c0.67,-8.85 -3.16,-18.69 -9.79,-25.39c-15.13,-15.31 -47.54,-17.14 -66.98,-4.55c-19.05,12.34 -23.31,44.99 3.01,56.96c6.15,2.79 12.82,4.46 19.31,6.46c7.92,2.44 16.21,3.94 23.76,7.2c9.84,4.24 11,12.84 3.22,21.47m436.8,-12.03c9.76,28.21 35.49,42.7 66.18,37.29c22.15,-3.91 41.38,-24.19 40.99,-43.33c-8.25,0 -16.5,0 -24.72,0c-0.27,0.67 -0.48,1.12 -0.64,1.59c-4.59,13.41 -12.11,19.53 -25.85,20.21c-12.98,0.64 -23.28,-4.53 -28.89,-16.48c-7.64,-16.28 -7.24,-32.87 0.29,-49.18c1.22,-2.65 3.21,-5.08 5.26,-7.22c14.12,-14.78 40.26,-10.69 47.72,7.41c0.81,1.94 1.43,3.97 2.03,5.68c8.62,0 16.87,0 26.15,0c-2.12,-6.03 -3.45,-11.77 -6.05,-16.86c-9.61,-18.83 -26.1,-26.91 -46.43,-27.47c-21.71,-0.6 -39.59,7.46 -50.73,26.72c-11.12,19.23 -11.42,39.88 -5.31,61.64m-19.71,11.86c0,-32.74 0,-65.47 0,-98.19c-8.45,0 -16.36,0 -24.62,0c0,15.5 0,30.69 0,46.44c-15.49,-23.82 -48.8,-16.53 -58.59,6.41c-7.65,17.93 -7.57,36.03 1.52,53.44c7.48,14.34 23.28,21.06 38.92,17.37c8.14,-1.93 13.84,-7.19 18.65,-15.59c0,5.82 0,10.07 0,14.4c8.23,0 16.1,0 24.12,0c0,-7.98 0,-15.63 0,-24.28m-317.74,-41.49c4.7,4.43 5.11,10.27 5.14,16.15c0.08,15 0.02,30 0.04,44.99c0,1.59 0.13,3.17 0.2,4.77c8.25,0 16.03,0 23.99,0c0,-20.96 0.91,-41.79 -0.27,-62.5c-1.04,-18.12 -13.6,-28.49 -31.12,-28.35c-11.33,0.08 -19.95,5.18 -26.92,14.49c0,-15.47 0,-30.93 0,-46.3c-8.47,0 -16.24,0 -24.12,0c0,40.99 0,81.72 0,122.64c8.17,0 16.09,0 24.48,0c0,-1.83 0,-3.45 0,-5.06c0.02,-15.67 -0.03,-31.33 0.08,-46.99c0.05,-6.72 2.27,-12.59 8.61,-15.76c6.58,-3.29 13.17,-2.99 19.89,1.92m160.77,59.75c6.41,-4.85 11.03,-10.87 12.85,-19.34c-6.93,-0.53 -13.52,-1.12 -20.12,-1.45c-0.97,-0.04 -2.42,0.93 -2.95,1.83c-3.92,6.74 -10.26,8.72 -17.38,8.81c-14.56,0.19 -21.95,-12.61 -19.95,-21.97c20.35,0 40.78,0 61.43,0c0,-4.3 0.28,-8.28 -0.04,-12.22c-3.09,-38.26 -38.9,-47.07 -62.07,-36.25c-29.08,13.59 -29.46,54.52 -14.82,73.05c13.91,17.59 41.61,21.22 63.05,7.54m32.48,-116.77c-4.07,-0.8 -3.61,1.93 -3.61,4.49c0.02,38.31 0.01,76.61 0.02,114.92c0,1.12 0.12,2.24 0.19,3.5c8.22,0 16.14,0 24.18,0c0,-41.06 0,-81.9 0,-122.91c-6.84,0 -13.33,0 -20.78,0m293.3,22.51c0,-7.43 0,-14.86 0,-22.26c-8.68,0 -16.77,0 -24.98,0c0,40.97 0,81.71 0,122.53c8.41,0 16.61,0 24.98,0c0,-33.31 0,-66.29 0,-100.27m-437.93,59c0,13.77 0,27.54 0,41.36c8.46,0 16.37,0 24.42,0c0,-29.79 0,-59.32 0,-89.01c-8.23,0 -16.17,0 -24.42,0c0,15.71 0,31.18 0,47.65m0.63,-79.14c-3.13,6.14 -2.66,11.34 1.39,15.56c4.12,4.3 11.08,5.51 16.55,2.89c5.03,-2.41 7.96,-7.47 7.32,-12.95c-0.61,-5.33 -3.73,-8.96 -8.65,-10.5c-6.13,-1.91 -11.83,-0.89 -16.61,5z" fill="none" id="svg_14"/>
   <path d="m545,1025c-181.67,0 -362.83,0 -544,0c0,-341.33 0,-682.67 0,-1024c341.33,0 682.67,0 1024,0c0,341.33 0,682.67 0,1024c-159.83,0 -319.67,0 -480,0m-456.98,-500.66c0.24,0.79 0.57,1.57 0.71,2.38c5.1,29.3 22.03,51.15 43.97,69.83c16.58,14.12 35.87,23.78 55.17,33.41c0.95,0.48 2.55,0.56 3.46,0.09c19.77,-10.17 39.81,-19.85 57.02,-34.34c28.68,-24.16 43.44,-54.79 43.64,-92.33c0.1,-20.15 0.01,-40.31 0.01,-60.47c0,-10.14 0,-20.29 0,-30.26c-33.36,-12.26 -66.38,-24.43 -99.45,-36.43c-1.87,-0.68 -4.44,-0.44 -6.37,0.25c-32.05,11.48 -64.04,23.14 -96.08,34.64c-2.9,1.05 -3.96,2.39 -3.95,5.58c0.13,27.32 -0.08,54.64 0.12,81.96c0.07,8.28 1.12,16.54 1.75,25.69m313.08,13.33c-8.87,6.34 -18.61,6.51 -28.61,3.69c-9.19,-2.59 -13.6,-9.36 -14.7,-18.3c-8.24,0 -16.01,0 -24.07,0c0.11,13.53 4.77,24.49 15.93,32.23c17.35,12.03 50.65,11.57 67.87,-0.51c17.45,-12.25 20.87,-44.48 -3.45,-56.62c-5.16,-2.58 -10.75,-4.39 -16.28,-6.1c-9.18,-2.83 -18.57,-5 -27.69,-8.03c-5.03,-1.67 -8.31,-5.48 -8.09,-11.33c0.22,-5.8 3.38,-9.59 8.45,-11.9c8.01,-3.64 16.16,-3.57 24.18,-0.12c5.01,2.15 8.25,6.03 9.58,11.41c0.31,1.23 0.79,2.42 1.12,3.43c8,0 15.63,0 23.23,0c0.67,-8.85 -3.16,-18.69 -9.79,-25.39c-15.13,-15.31 -47.54,-17.14 -66.98,-4.55c-19.05,12.34 -23.31,44.99 3.01,56.96c6.15,2.79 12.82,4.46 19.31,6.46c7.92,2.44 16.21,3.94 23.76,7.2c9.84,4.24 11,12.84 3.22,21.47m436.8,-12.03c9.76,28.21 35.49,42.7 66.18,37.29c22.15,-3.91 41.38,-24.19 40.99,-43.33c-8.25,0 -16.5,0 -24.72,0c-0.27,0.67 -0.48,1.12 -0.64,1.59c-4.59,13.41 -12.11,19.53 -25.85,20.21c-12.98,0.64 -23.28,-4.53 -28.89,-16.48c-7.64,-16.28 -7.24,-32.87 0.29,-49.18c1.22,-2.65 3.21,-5.08 5.26,-7.22c14.12,-14.78 40.26,-10.69 47.72,7.41c0.81,1.94 1.43,3.97 2.03,5.68c8.62,0 16.87,0 26.15,0c-2.12,-6.03 -3.45,-11.77 -6.05,-16.86c-9.61,-18.83 -26.1,-26.91 -46.43,-27.47c-21.71,-0.6 -39.59,7.46 -50.73,26.72c-11.12,19.23 -11.42,39.88 -5.31,61.64m-19.71,11.86c0,-32.74 0,-65.47 0,-98.19c-8.45,0 -16.36,0 -24.62,0c0,15.5 0,30.69 0,46.44c-15.49,-23.82 -48.8,-16.53 -58.59,6.41c-7.65,17.93 -7.57,36.03 1.52,53.44c7.48,14.34 23.28,21.06 38.92,17.37c8.14,-1.93 13.84,-7.19 18.65,-15.59c0,5.82 0,10.07 0,14.4c8.23,0 16.1,0 24.12,0c0,-7.98 0,-15.63 0,-24.28m-317.74,-41.49c4.7,4.43 5.11,10.27 5.14,16.15c0.08,15 0.02,30 0.04,44.99c0,1.59 0.13,3.17 0.2,4.77c8.25,0 16.03,0 23.99,0c0,-20.96 0.91,-41.79 -0.27,-62.5c-1.04,-18.12 -13.6,-28.49 -31.12,-28.35c-11.33,0.08 -19.95,5.18 -26.92,14.49c0,-15.47 0,-30.93 0,-46.3c-8.47,0 -16.24,0 -24.12,0c0,40.99 0,81.72 0,122.64c8.17,0 16.09,0 24.48,0c0,-1.83 0,-3.45 0,-5.06c0.02,-15.67 -0.03,-31.33 0.08,-46.99c0.05,-6.72 2.27,-12.59 8.61,-15.76c6.58,-3.29 13.17,-2.99 19.89,1.92m160.77,59.75c6.41,-4.85 11.03,-10.87 12.85,-19.34c-6.93,-0.53 -13.52,-1.12 -20.12,-1.45c-0.97,-0.04 -2.42,0.93 -2.95,1.83c-3.92,6.74 -10.26,8.72 -17.38,8.81c-14.56,0.19 -21.95,-12.61 -19.95,-21.97c20.35,0 40.78,0 61.43,0c0,-4.3 0.28,-8.28 -0.04,-12.22c-3.09,-38.26 -38.9,-47.07 -62.07,-36.25c-29.08,13.59 -29.46,54.52 -14.82,73.05c13.91,17.59 41.61,21.22 63.05,7.54m32.48,-116.77c-4.07,-0.8 -3.61,1.93 -3.61,4.49c0.02,38.31 0.01,76.61 0.02,114.92c0,1.12 0.12,2.24 0.19,3.5c8.22,0 16.14,0 24.18,0c0,-41.06 0,-81.9 0,-122.91c-6.84,0 -13.33,0 -20.78,0m293.3,22.51c0,-7.43 0,-14.86 0,-22.26c-8.68,0 -16.77,0 -24.98,0c0,40.97 0,81.71 0,122.53c8.41,0 16.61,0 24.98,0c0,-33.31 0,-66.29 0,-100.27m-437.93,59c0,13.77 0,27.54 0,41.36c8.46,0 16.37,0 24.42,0c0,-29.79 0,-59.32 0,-89.01c-8.23,0 -16.17,0 -24.42,0c0,15.71 0,31.18 0,47.65m0.63,-79.14c-3.13,6.14 -2.66,11.34 1.39,15.56c4.12,4.3 11.08,5.51 16.55,2.89c5.03,-2.41 7.96,-7.47 7.32,-12.95c-0.61,-5.33 -3.73,-8.96 -8.65,-10.5c-6.13,-1.91 -11.83,-0.89 -16.61,5z" fill="none" id="svg_7"/>
   <path d="m88.01,523.9c-0.62,-8.71 -1.67,-16.97 -1.74,-25.25c-0.2,-27.32 0.01,-54.64 -0.12,-81.96c-0.01,-3.19 1.05,-4.53 3.95,-5.58c32.04,-11.5 64.03,-23.16 96.08,-34.64c1.93,-0.69 4.5,-0.93 6.37,-0.25c33.07,12 66.09,24.17 99.45,36.43c0,9.97 0,20.12 0,30.26c0,20.16 0.09,40.32 -0.01,60.47c-0.2,37.54 -14.96,68.17 -43.64,92.33c-17.21,14.49 -37.25,24.17 -57.02,34.34c-0.91,0.47 -2.51,0.39 -3.46,-0.09c-19.3,-9.63 -38.59,-19.29 -55.17,-33.41c-21.94,-18.68 -38.87,-40.53 -43.97,-69.83c-0.14,-0.81 -0.47,-1.59 -0.72,-2.82m180.99,-89.13c0.76,-3.8 -1.05,-5.45 -4.57,-6.71c-23.58,-8.47 -47.06,-17.23 -70.64,-25.69c-2.21,-0.79 -5.19,-0.81 -7.39,-0.02c-24.35,8.71 -48.59,17.75 -72.94,26.44c-2.98,1.06 -3.65,2.37 -3.64,5.25c0.13,23.98 -0.09,47.96 0.18,71.94c0.28,24.39 9.49,45.23 26.27,62.78c14.37,15.03 31.73,25.73 50.41,34.42c1.48,0.69 3.92,0.63 5.38,-0.12c8.77,-4.51 17.68,-8.87 26.02,-14.13c33.86,-21.34 52.57,-51.05 51.05,-92.26c-0.75,-20.29 -0.13,-40.64 -0.13,-61.9z" fill="#7F22FE" id="svg_11"/>
   <path d="m156.19,458.29c-3.82,3.83 -2.84,10.96 1.42,12.58c30.32,11.52 60.66,23 91.35,34.62c-0.06,18.65 -4.9,35.63 -18.41,49.48c-11.21,11.5 -24.31,20.3 -38.77,27.13c-1.16,0.55 -2.96,0.87 -3.99,0.36c-17.48,-8.71 -33.4,-19.46 -45.33,-35.33c-8.47,-11.27 -12.29,-23.93 -11.37,-38.71c7.49,2.57 14.81,5.04 22.08,7.67c0.69,0.25 1.35,1.45 1.47,2.29c2.16,14.65 11.68,24.29 22.94,32.19c13.82,9.7 8.77,10.04 23.84,-0.01c9.94,-6.64 18.52,-15.03 22.01,-27.33c1.02,-3.61 0.55,-5.04 -3.17,-6.4c-28.61,-10.44 -57.13,-21.12 -85.63,-31.86c-1.45,-0.55 -3.45,-2.32 -3.47,-3.56c-0.26,-12.65 -0.16,-25.3 -0.16,-37.77c19.06,-6.94 37.79,-13.8 56.58,-20.5c1.64,-0.58 3.85,-0.52 5.49,0.08c17.56,6.32 35.08,12.77 52.55,19.34c1.35,0.5 3.21,2.15 3.23,3.3c0.24,12.3 0.15,24.61 0.15,37.78c-7.48,-2.96 -14.58,-5.68 -21.56,-8.67c-0.74,-0.31 -1.11,-2.15 -1.15,-3.29c-0.13,-4.32 -0.05,-8.65 -0.05,-13.23c-11.1,-3.85 -22.02,-7.73 -33.02,-11.35c-1.64,-0.54 -3.82,-0.2 -5.54,0.37c-10.41,3.43 -20.76,7.05 -31.49,10.82z" fill="#DDD6FE" id="svg_12"/>
   <path d="m259.52,426.48c9.48,3.19 9.48,3.19 9.48,12.46c0,19.65 -0.51,39.33 0.11,58.97c1.23,39.1 -16.17,67.98 -47.94,88.99c-9.17,6.07 -19.17,10.9 -28.91,16.07c-1.48,0.79 -3.96,1.04 -5.41,0.35c-18.93,-8.93 -36.64,-19.73 -51.13,-35.12c-16.4,-17.41 -25.43,-38.01 -25.71,-62.02c-0.29,-24.16 -0.07,-48.31 -0.18,-72.47c-0.01,-2.72 0.68,-3.87 3.46,-4.87c24.37,-8.69 48.61,-17.72 72.98,-26.41c2.33,-0.83 5.48,-0.74 7.83,0.1c21.75,7.76 43.41,15.78 65.42,23.95m-20.77,75.36c-0.43,-0.25 -0.84,-0.57 -1.3,-0.75c-26.48,-10.05 -52.92,-20.25 -79.52,-30.01c-4.81,-1.77 -3.58,-4.96 -3.99,-8.21c-0.46,-3.56 1.54,-4.28 4.32,-5.21c9.94,-3.29 19.75,-6.99 29.68,-10.3c1.84,-0.61 4.22,-0.72 6.04,-0.12c10.7,3.56 21.31,7.4 32.26,11.26c0,4.5 -0.09,8.98 0.07,13.46c0.03,1.1 0.59,2.82 1.37,3.16c6.9,2.93 13.91,5.61 21.32,8.53c0,-13.15 0.07,-25.62 -0.14,-38.08c-0.02,-1.01 -1.81,-2.43 -3.06,-2.9c-17.63,-6.61 -35.31,-13.11 -53,-19.55c-1.23,-0.44 -2.86,-0.64 -4.04,-0.22c-19.25,6.8 -38.45,13.71 -57.76,20.64c0,12.19 0.1,24.18 -0.07,36.17c-0.04,3.1 0.9,4.4 3.92,5.51c28.44,10.42 56.76,21.18 85.22,31.56c4.02,1.46 4.32,2.94 3.24,6.73c-3.46,12.14 -11.97,20.37 -21.74,26.92c-15.24,10.22 -10.13,9.88 -24.23,-0.05c-11.27,-7.92 -20.68,-17.64 -22.79,-32.3c-0.12,-0.83 -1.27,-1.85 -2.16,-2.18c-7,-2.57 -14.06,-5 -21.28,-7.54c-1.03,15.05 3.04,27.93 11.83,39.42c11.95,15.63 27.84,26.16 45.12,34.85c1.1,0.55 3.26,-0.03 4.47,-0.8c10.29,-6.51 21.04,-12.46 30.57,-19.96c18.07,-14.2 26.23,-33.45 25.75,-56.42c-3.2,-1.18 -6.26,-2.32 -10.1,-3.61z" fill="#000000" id="svg_13" xmlns="http://www.w3.org/2000/svg"/>
   <path d="m0.13,43.9c-0.99,-6.77 3.92,-13.04 10.96,-13.99l102.06,-13.79c7.05,-0.95 13.56,3.77 14.55,10.54l20.17,137.97c0.99,6.78 -3.92,13.04 -10.96,13.99l-97.81,13.22c-9.39,1.27 -18.08,-5.03 -19.4,-14.06l-19.57,-133.88z" fill="url(#paint0_linear_1288_1252)" id="svg_3"/>
   <path d="m10.14,30.57c-1.08,-7.69 4.24,-14.81 11.88,-15.89l102.66,-14.54c7.63,-1.08 14.69,4.28 15.76,11.97l19.42,139.32c1.08,7.69 -4.24,14.81 -11.87,15.89l-102.67,14.54c-7.63,1.08 -14.69,-4.28 -15.76,-11.97l-19.42,-139.32z" fill="url(#paint1_linear_1288_1252)" id="svg_4"/>
   <path d="m19.1,33.74c-0.77,-5.46 3.02,-10.52 8.45,-11.29l94.4,-13.35c5.43,-0.77 10.45,3.04 11.21,8.51l18.24,130.65c0.76,5.46 -3.02,10.52 -8.45,11.29l-94.4,13.35c-5.43,0.77 -10.45,-3.04 -11.21,-8.5l-18.24,-130.66z" fill="white" id="svg_5" transform="matrix(1 0 0 1 0 0)"/>
   <path d="m121.86,108.08a0.92,0.86 0 0 1 0.09,0.21l3.08,11.29a0.9,0.84 0 0 1 -0.24,0.84l-8.66,8.11l2.95,10.82c0.08,0.29 0,0.61 -0.24,0.82l-18.06,16.92c-0.04,0.03 -0.09,0.07 -0.13,0.1c-0.02,0 -0.04,0.03 -0.06,0.03a0.92,0.86 0 0 1 -0.46,0.12c-0.04,0.01 -0.06,-0.01 -0.08,-0.01c-0.04,0.01 -0.1,-0.01 -0.15,-0.02l-24.29,-5.88a0.9,0.84 0 0 1 -0.64,-0.59l-9.24,-33.9c-0.01,-0.08 -0.02,-0.14 -0.03,-0.22c0,-0.02 0.02,-0.04 0.01,-0.06c-0.01,-0.06 0.01,-0.1 0.02,-0.14c0,-0.02 0.02,-0.04 0.03,-0.08c0.02,-0.04 0.03,-0.08 0.05,-0.11c0.04,-0.03 0.05,-0.07 0.07,-0.09c0.02,-0.04 0.05,-0.07 0.07,-0.09l0,0l9.03,-8.46a0.9,0.84 0 0 1 0.88,-0.23l12.14,2.93l0,0c0.04,0.01 0.09,0.03 0.11,0.05c0.04,0.01 0.09,0.03 0.11,0.05c0.04,0.01 0.07,0.05 0.09,0.07c0.02,0.02 0.07,0.03 0.07,0.05c0.05,0.03 0.07,0.07 0.1,0.11c0,0.02 0.03,0.04 0.05,0.05a0.92,0.86 0 0 1 0.09,0.21l5.78,21.15l7.54,-7.05l-2.95,-10.82c-0.01,-0.08 -0.02,-0.14 -0.03,-0.22c0,-0.02 0.02,-0.04 0.01,-0.06c-0.01,-0.06 0.01,-0.1 0.02,-0.14c0,-0.02 0.03,-0.06 0.03,-0.08c0.02,-0.04 0.03,-0.08 0.05,-0.11c0.02,-0.04 0.05,-0.07 0.07,-0.09c0.02,-0.04 0.05,-0.07 0.07,-0.09l0,0l9.03,-8.46a0.9,0.84 0 0 1 0.88,-0.23l12.14,2.93c0.04,0.01 0.09,0.03 0.11,0.05c0.04,0.01 0.08,0.01 0.11,0.05c0.04,0.01 0.07,0.05 0.09,0.07c0.02,0.02 0.07,0.03 0.09,0.05c0.03,0.04 0.05,0.07 0.1,0.11c0.02,0.02 0.03,0.04 0.05,0.05l0.04,0.01zm1.26,11.48l-2.56,-9.39l-3.15,2.95l-4.37,4.1l2.56,9.39l7.54,-7.05l-0.02,0zm-5.95,19.75l-2.56,-9.39l-4.3,3.99l-12.28,11.4l2.59,9.49l16.57,-15.49l-0.02,0zm-49.32,-21.41l8.72,31.98l22.25,5.39l-2.59,-9.47l-11.6,-2.72l-0.02,0l0,0c-0.04,-0.01 -0.09,-0.03 -0.11,-0.05c-0.02,-0.02 -0.07,-0.03 -0.09,-0.05l-0.02,0c-0.02,-0.02 -0.07,-0.05 -0.09,-0.07c-0.02,-0.02 -0.07,-0.03 -0.09,-0.07l0,0c-0.02,-0.02 -0.05,-0.05 -0.07,-0.09c-0.02,-0.02 -0.05,-0.05 -0.07,-0.07l0,0c-0.03,-0.04 -0.03,-0.08 -0.06,-0.11c-0.01,-0.04 -0.03,-0.06 -0.03,-0.1l-6.03,-22.11l-5.87,-1.42l-4.24,-1.02l0.02,-0.02zm8.02,-8.69l-7.54,7.05l10.11,2.44l7.54,-7.05l-10.11,-2.44zm12.68,28.42l4.37,-4.1l-5.64,-20.69l-3.15,2.95l-4.37,4.1l5.64,20.69l3.17,-2.95l-0.02,0zm20.6,-31.09l-7.52,7.03l10.11,2.44l7.54,-7.05l-10.11,-2.44l-0.02,0.02zm2.11,11.15l-5.87,-1.42l-4.26,-1.02l2.56,9.39l5.87,1.42l4.24,1.02l-2.56,-9.39l0.02,0zm-14.51,26.45l11.05,-10.27l5.53,-5.14l-10.11,-2.44l-8.66,8.11l-7.89,7.38l10.08,2.36z" fill="#FF2D20" fill-rule="evenodd" id="svg_10" transform="matrix(1 0 0 1 -6.90846 0.863558)"/>
   <path d="m88.01,523.9c-0.62,-8.71 -1.67,-16.97 -1.74,-25.25c-0.2,-27.32 0.01,-54.64 -0.12,-81.96c-0.01,-3.19 1.05,-4.53 3.95,-5.58c32.04,-11.5 64.03,-23.16 96.08,-34.64c1.93,-0.69 4.5,-0.93 6.37,-0.25c33.07,12 66.09,24.17 99.45,36.43c0,9.97 0,20.12 0,30.26c0,20.16 0.09,40.32 -0.01,60.47c-0.2,37.54 -14.96,68.17 -43.64,92.33c-17.21,14.49 -37.25,24.17 -57.02,34.34c-0.91,0.47 -2.51,0.39 -3.46,-0.09c-19.3,-9.63 -38.59,-19.29 -55.17,-33.41c-21.94,-18.68 -38.87,-40.53 -43.97,-69.83c-0.14,-0.81 -0.47,-1.59 -0.72,-2.82m180.99,-89.13c0.76,-3.8 -1.05,-5.45 -4.57,-6.71c-23.58,-8.47 -47.06,-17.23 -70.64,-25.69c-2.21,-0.79 -5.19,-0.81 -7.39,-0.02c-24.35,8.71 -48.59,17.75 -72.94,26.44c-2.98,1.06 -3.65,2.37 -3.64,5.25c0.13,23.98 -0.09,47.96 0.18,71.94c0.28,24.39 9.49,45.23 26.27,62.78c14.37,15.03 31.73,25.73 50.41,34.42c1.48,0.69 3.92,0.63 5.38,-0.12c8.77,-4.51 17.68,-8.87 26.02,-14.13c33.86,-21.34 52.57,-51.05 51.05,-92.26c-0.75,-20.29 -0.13,-40.64 -0.13,-61.9z" fill="#7F22FE" id="svg_15"/>
   <path d="m156.19,458.29c-3.82,3.83 -2.84,10.96 1.42,12.58c30.32,11.52 60.66,23 91.35,34.62c-0.06,18.65 -4.9,35.63 -18.41,49.48c-11.21,11.5 -24.31,20.3 -38.77,27.13c-1.16,0.55 -2.96,0.87 -3.99,0.36c-17.48,-8.71 -33.4,-19.46 -45.33,-35.33c-8.47,-11.27 -12.29,-23.93 -11.37,-38.71c7.49,2.57 14.81,5.04 22.08,7.67c0.69,0.25 1.35,1.45 1.47,2.29c2.16,14.65 11.68,24.29 22.94,32.19c13.82,9.7 8.77,10.04 23.84,-0.01c9.94,-6.64 18.52,-15.03 22.01,-27.33c1.02,-3.61 0.55,-5.04 -3.17,-6.4c-28.61,-10.44 -57.13,-21.12 -85.63,-31.86c-1.45,-0.55 -3.45,-2.32 -3.47,-3.56c-0.26,-12.65 -0.16,-25.3 -0.16,-37.77c19.06,-6.94 37.79,-13.8 56.58,-20.5c1.64,-0.58 3.85,-0.52 5.49,0.08c17.56,6.32 35.08,12.77 52.55,19.34c1.35,0.5 3.21,2.15 3.23,3.3c0.24,12.3 0.15,24.61 0.15,37.78c-7.48,-2.96 -14.58,-5.68 -21.56,-8.67c-0.74,-0.31 -1.11,-2.15 -1.15,-3.29c-0.13,-4.32 -0.05,-8.65 -0.05,-13.23c-11.1,-3.85 -22.02,-7.73 -33.02,-11.35c-1.64,-0.54 -3.82,-0.2 -5.54,0.37c-10.41,3.43 -20.76,7.05 -31.49,10.82z" fill="#101828" id="svg_16"/>
   <path d="m259.52,426.48c9.48,3.19 9.48,3.19 9.48,12.46c0,19.65 -0.51,39.33 0.11,58.97c1.23,39.1 -16.17,67.98 -47.94,88.99c-9.17,6.07 -19.17,10.9 -28.91,16.07c-1.48,0.79 -3.96,1.04 -5.41,0.35c-18.93,-8.93 -36.64,-19.73 -51.13,-35.12c-16.4,-17.41 -25.43,-38.01 -25.71,-62.02c-0.29,-24.16 -0.07,-48.31 -0.18,-72.47c-0.01,-2.72 0.68,-3.87 3.46,-4.87c24.37,-8.69 48.61,-17.72 72.98,-26.41c2.33,-0.83 5.48,-0.74 7.83,0.1c21.75,7.76 43.41,15.78 65.42,23.95m-20.77,75.36c-0.43,-0.25 -0.84,-0.57 -1.3,-0.75c-26.48,-10.05 -52.92,-20.25 -79.52,-30.01c-4.81,-1.77 -3.58,-4.96 -3.99,-8.21c-0.46,-3.56 1.54,-4.28 4.32,-5.21c9.94,-3.29 19.75,-6.99 29.68,-10.3c1.84,-0.61 4.22,-0.72 6.04,-0.12c10.7,3.56 21.31,7.4 32.26,11.26c0,4.5 -0.09,8.98 0.07,13.46c0.03,1.1 0.59,2.82 1.37,3.16c6.9,2.93 13.91,5.61 21.32,8.53c0,-13.15 0.07,-25.62 -0.14,-38.08c-0.02,-1.01 -1.81,-2.43 -3.06,-2.9c-17.63,-6.61 -35.31,-13.11 -53,-19.55c-1.23,-0.44 -2.86,-0.64 -4.04,-0.22c-19.25,6.8 -38.45,13.71 -57.76,20.64c0,12.19 0.1,24.18 -0.07,36.17c-0.04,3.1 0.9,4.4 3.92,5.51c28.44,10.42 56.76,21.18 85.22,31.56c4.02,1.46 4.32,2.94 3.24,6.73c-3.46,12.14 -11.97,20.37 -21.74,26.92c-15.24,10.22 -10.13,9.88 -24.23,-0.05c-11.27,-7.92 -20.68,-17.64 -22.79,-32.3c-0.12,-0.83 -1.27,-1.85 -2.16,-2.18c-7,-2.57 -14.06,-5 -21.28,-7.54c-1.03,15.05 3.04,27.93 11.83,39.42c11.95,15.63 27.84,26.16 45.12,34.85c1.1,0.55 3.26,-0.03 4.47,-0.8c10.29,-6.51 21.04,-12.46 30.57,-19.96c18.07,-14.2 26.23,-33.45 25.75,-56.42c-3.2,-1.18 -6.26,-2.32 -10.1,-3.61z" fill="#FFFFFF" id="svg_17"/>
  </g>
  <path d="m324,861c-181.67,0 -362.83,0 -544,0c0,-341.33 0,-682.67 0,-1024c341.33,0 682.67,0 1024,0c0,341.33 0,682.67 0,1024c-159.83,0 -319.67,0 -480,0m-456.98,-500.66c0.24,0.79 0.57,1.57 0.71,2.38c5.1,29.3 22.03,51.15 43.97,69.83c16.58,14.12 35.87,23.78 55.17,33.41c0.95,0.48 2.55,0.56 3.46,0.09c19.77,-10.17 39.81,-19.85 57.02,-34.34c28.68,-24.16 43.44,-54.79 43.64,-92.33c0.1,-20.15 0.01,-40.31 0.01,-60.47c0,-10.14 0,-20.29 0,-30.26c-33.36,-12.26 -66.38,-24.43 -99.45,-36.43c-1.87,-0.68 -4.44,-0.44 -6.37,0.25c-32.05,11.48 -64.04,23.14 -96.08,34.64c-2.9,1.05 -3.96,2.39 -3.95,5.58c0.13,27.32 -0.08,54.64 0.12,81.96c0.07,8.28 1.12,16.54 1.75,25.69m313.08,13.33c-8.87,6.34 -18.61,6.51 -28.61,3.69c-9.19,-2.59 -13.6,-9.36 -14.7,-18.3c-8.24,0 -16.01,0 -24.07,0c0.11,13.53 4.77,24.49 15.93,32.23c17.35,12.03 50.65,11.57 67.87,-0.51c17.45,-12.25 20.87,-44.48 -3.45,-56.62c-5.16,-2.58 -10.75,-4.39 -16.28,-6.1c-9.18,-2.83 -18.57,-5 -27.69,-8.03c-5.03,-1.67 -8.31,-5.48 -8.09,-11.33c0.22,-5.8 3.38,-9.59 8.45,-11.9c8.01,-3.64 16.16,-3.57 24.18,-0.12c5.01,2.15 8.25,6.03 9.58,11.41c0.31,1.23 0.79,2.42 1.12,3.43c8,0 15.63,0 23.23,0c0.67,-8.85 -3.16,-18.69 -9.79,-25.39c-15.13,-15.31 -47.54,-17.14 -66.98,-4.55c-19.05,12.34 -23.31,44.99 3.01,56.96c6.15,2.79 12.82,4.46 19.31,6.46c7.92,2.44 16.21,3.94 23.76,7.2c9.84,4.24 11,12.84 3.22,21.47m436.8,-12.03c9.76,28.21 35.49,42.7 66.18,37.29c22.15,-3.91 41.38,-24.19 40.99,-43.33c-8.25,0 -16.5,0 -24.72,0c-0.27,0.67 -0.48,1.12 -0.64,1.59c-4.59,13.41 -12.11,19.53 -25.85,20.21c-12.98,0.64 -23.28,-4.53 -28.89,-16.48c-7.64,-16.28 -7.24,-32.87 0.29,-49.18c1.22,-2.65 3.21,-5.08 5.26,-7.22c14.12,-14.78 40.26,-10.69 47.72,7.41c0.81,1.94 1.43,3.97 2.03,5.68c8.62,0 16.87,0 26.15,0c-2.12,-6.03 -3.45,-11.77 -6.05,-16.86c-9.61,-18.83 -26.1,-26.91 -46.43,-27.47c-21.71,-0.6 -39.59,7.46 -50.73,26.72c-11.12,19.23 -11.42,39.88 -5.31,61.64m-19.71,11.86c0,-32.74 0,-65.47 0,-98.19c-8.45,0 -16.36,0 -24.62,0c0,15.5 0,30.69 0,46.44c-15.49,-23.82 -48.8,-16.53 -58.59,6.41c-7.65,17.93 -7.57,36.03 1.52,53.44c7.48,14.34 23.28,21.06 38.92,17.37c8.14,-1.93 13.84,-7.19 18.65,-15.59c0,5.82 0,10.07 0,14.4c8.23,0 16.1,0 24.12,0c0,-7.98 0,-15.63 0,-24.28m-317.74,-41.49c4.7,4.43 5.11,10.27 5.14,16.15c0.08,15 0.02,30 0.04,44.99c0,1.59 0.13,3.17 0.2,4.77c8.25,0 16.03,0 23.99,0c0,-20.96 0.91,-41.79 -0.27,-62.5c-1.04,-18.12 -13.6,-28.49 -31.12,-28.35c-11.33,0.08 -19.95,5.18 -26.92,14.49c0,-15.47 0,-30.93 0,-46.3c-8.47,0 -16.24,0 -24.12,0c0,40.99 0,81.72 0,122.64c8.17,0 16.09,0 24.48,0c0,-1.83 0,-3.45 0,-5.06c0.02,-15.67 -0.03,-31.33 0.08,-46.99c0.05,-6.72 2.27,-12.59 8.61,-15.76c6.58,-3.29 13.17,-2.99 19.89,1.92m160.77,59.75c6.41,-4.85 11.03,-10.87 12.85,-19.34c-6.93,-0.53 -13.52,-1.12 -20.12,-1.45c-0.97,-0.04 -2.42,0.93 -2.95,1.83c-3.92,6.74 -10.26,8.72 -17.38,8.81c-14.56,0.19 -21.95,-12.61 -19.95,-21.97c20.35,0 40.78,0 61.43,0c0,-4.3 0.28,-8.28 -0.04,-12.22c-3.09,-38.26 -38.9,-47.07 -62.07,-36.25c-29.08,13.59 -29.46,54.52 -14.82,73.05c13.91,17.59 41.61,21.22 63.05,7.54m32.48,-116.77c-4.07,-0.8 -3.61,1.93 -3.61,4.49c0.02,38.31 0.01,76.61 0.02,114.92c0,1.12 0.12,2.24 0.19,3.5c8.22,0 16.14,0 24.18,0c0,-41.06 0,-81.9 0,-122.91c-6.84,0 -13.33,0 -20.78,0m293.3,22.51c0,-7.43 0,-14.86 0,-22.26c-8.68,0 -16.77,0 -24.98,0c0,40.97 0,81.71 0,122.53c8.41,0 16.61,0 24.98,0c0,-33.31 0,-66.29 0,-100.27m-437.93,59c0,13.77 0,27.54 0,41.36c8.46,0 16.37,0 24.42,0c0,-29.79 0,-59.32 0,-89.01c-8.23,0 -16.17,0 -24.42,0c0,15.71 0,31.18 0,47.65m0.63,-79.14c-3.13,6.14 -2.66,11.34 1.39,15.56c4.12,4.3 11.08,5.51 16.55,2.89c5.03,-2.41 7.96,-7.47 7.32,-12.95c-0.61,-5.33 -3.73,-8.96 -8.65,-10.5c-6.13,-1.91 -11.83,-0.89 -16.61,5z" fill="none" id="svg_18" transform="matrix(1 0 0 1 254 480)"/>
  <path d="m58.28,77.24c-0.55,-2.46 -1.2,-4.76 -1.58,-7.12c-1.22,-7.78 -2.33,-15.58 -3.53,-23.36c-0.14,-0.91 0.11,-1.34 0.9,-1.76c8.72,-4.69 17.43,-9.42 26.15,-14.11c0.53,-0.28 1.25,-0.46 1.82,-0.35c10.02,1.96 20.04,3.98 30.15,6c0.42,2.84 0.86,5.74 1.29,8.63c0.86,5.75 1.74,11.49 2.57,17.24c1.54,10.71 -1.4,20.09 -8.62,28.25c-4.33,4.89 -9.68,8.53 -14.93,12.3c-0.24,0.17 -0.71,0.22 -1,0.13c-5.96,-1.9 -11.92,-3.8 -17.29,-7.09c-7.11,-4.36 -12.9,-9.84 -15.62,-17.97c-0.07,-0.22 -0.2,-0.43 -0.33,-0.77m48.25,-33.39c0.06,-1.12 -0.53,-1.51 -1.6,-1.71c-7.14,-1.38 -14.27,-2.84 -21.41,-4.21c-0.67,-0.13 -1.53,0 -2.13,0.32c-6.63,3.56 -13.22,7.2 -19.85,10.75c-0.81,0.43 -0.95,0.84 -0.82,1.66c1.06,6.83 2.02,13.68 3.12,20.5c1.12,6.94 4.66,12.48 10.23,16.74c4.77,3.65 10.22,5.94 15.96,7.59c0.46,0.13 1.15,0.01 1.54,-0.27c2.33,-1.67 4.71,-3.31 6.88,-5.17c8.83,-7.58 12.94,-16.87 10.75,-28.55c-1.08,-5.75 -1.77,-11.58 -2.67,-17.64z" fill="#7F22FE" id="svg_19" transform="matrix(1 0 0 1 -4.66321 -7.59931)"/>
  <path d="m69.81,48.75c-1.01,1.4 -0.36,3.56 1.06,3.84c10.09,1.97 20.19,3.93 30.4,5.91c0.89,5.81 0.2,11.35 -3.36,16.38c-2.96,4.18 -6.65,7.62 -10.86,10.51c-0.34,0.23 -0.89,0.43 -1.24,0.32c-5.92,-1.78 -11.45,-4.28 -15.98,-8.58c-3.21,-3.06 -5.03,-6.79 -5.47,-11.44c2.48,0.4 4.9,0.78 7.31,1.21c0.23,0.04 0.5,0.38 0.57,0.63c1.4,4.45 4.86,6.94 8.79,8.8c4.82,2.28 3.25,2.66 7.49,-1.27c2.8,-2.6 5.09,-5.67 5.58,-9.68c0.14,-1.18 -0.07,-1.6 -1.31,-1.82c-9.5,-1.73 -18.99,-3.53 -28.47,-5.35c-0.48,-0.09 -1.2,-0.54 -1.26,-0.92c-0.7,-3.92 -1.29,-7.87 -1.9,-11.75c5.65,-3.18 11.2,-6.31 16.78,-9.4c0.49,-0.27 1.18,-0.37 1.73,-0.27c5.83,1.03 11.65,2.11 17.46,3.22c0.45,0.08 1.11,0.5 1.18,0.86c0.68,3.82 1.25,7.65 1.9,11.75c-2.5,-0.52 -4.86,-0.99 -7.2,-1.55c-0.25,-0.06 -0.45,-0.61 -0.52,-0.96c-0.25,-1.34 -0.44,-2.69 -0.66,-4.12c-3.68,-0.61 -7.3,-1.23 -10.93,-1.77c-0.54,-0.08 -1.21,0.14 -1.72,0.41c-3.1,1.62 -6.18,3.3 -9.37,5.05z" fill="#101828" id="svg_20" transform="matrix(0.974601 0 0 0.938159 1.20389 2.03183)"/>
 </g>
</svg>